<mxfile host="app.diagrams.net" modified="2022-12-16T03:17:51.051Z" agent="5.0 (Windows NT 10.0; Win64; x64) AppleWebKit/537.36 (KHTML, like Gecko) Chrome/108.0.0.0 Safari/537.36" etag="ViqSb8xDw--ylUB47Edq" version="20.5.3" type="github">
  <diagram id="k6HM9-MAfGxd2XdQ5Wo0" name="PÃ¡gina-1">
    <mxGraphModel dx="1529" dy="765" grid="1" gridSize="10" guides="1" tooltips="1" connect="1" arrows="1" fold="1" page="1" pageScale="1" pageWidth="827" pageHeight="1169" math="0" shadow="0">
      <root>
        <mxCell id="0" />
        <mxCell id="1" parent="0" />
        <mxCell id="4YiFxOVjSTQpvdzxmnNl-1" value="REGISTRAR USUARIO" style="ellipse;whiteSpace=wrap;html=1;" vertex="1" parent="1">
          <mxGeometry x="-490" y="270" width="120" height="50" as="geometry" />
        </mxCell>
        <mxCell id="4YiFxOVjSTQpvdzxmnNl-2" value="REGISTRAR INMUEBLE" style="ellipse;whiteSpace=wrap;html=1;" vertex="1" parent="1">
          <mxGeometry x="-510" y="190" width="120" height="60" as="geometry" />
        </mxCell>
        <mxCell id="4YiFxOVjSTQpvdzxmnNl-3" value="CONSULTAR INNMUEBLE" style="ellipse;whiteSpace=wrap;html=1;" vertex="1" parent="1">
          <mxGeometry x="-500" y="390" width="120" height="50" as="geometry" />
        </mxCell>
        <mxCell id="4YiFxOVjSTQpvdzxmnNl-4" value="CONSULTAR VENTAS" style="ellipse;whiteSpace=wrap;html=1;" vertex="1" parent="1">
          <mxGeometry x="-490" y="330" width="120" height="50" as="geometry" />
        </mxCell>
        <mxCell id="4YiFxOVjSTQpvdzxmnNl-5" value="REGISTRAR COMPRA / VENTA" style="ellipse;whiteSpace=wrap;html=1;" vertex="1" parent="1">
          <mxGeometry x="-506" y="120" width="120" height="60" as="geometry" />
        </mxCell>
        <mxCell id="4YiFxOVjSTQpvdzxmnNl-6" value="VENDEDOR&lt;br&gt;" style="shape=umlActor;verticalLabelPosition=bottom;verticalAlign=top;html=1;outlineConnect=0;" vertex="1" parent="1">
          <mxGeometry x="-690" y="340" width="30" height="60" as="geometry" />
        </mxCell>
        <mxCell id="4YiFxOVjSTQpvdzxmnNl-7" value="COMPRADOR" style="shape=umlActor;verticalLabelPosition=bottom;verticalAlign=top;html=1;outlineConnect=0;" vertex="1" parent="1">
          <mxGeometry x="-185" y="360" width="30" height="60" as="geometry" />
        </mxCell>
        <mxCell id="4YiFxOVjSTQpvdzxmnNl-11" value="" style="endArrow=none;html=1;rounded=0;entryX=0;entryY=0.5;entryDx=0;entryDy=0;" edge="1" parent="1" target="4YiFxOVjSTQpvdzxmnNl-3">
          <mxGeometry width="50" height="50" relative="1" as="geometry">
            <mxPoint x="-650" y="370" as="sourcePoint" />
            <mxPoint x="-580" y="460" as="targetPoint" />
          </mxGeometry>
        </mxCell>
        <mxCell id="4YiFxOVjSTQpvdzxmnNl-13" value="" style="endArrow=none;html=1;rounded=0;entryX=0.228;entryY=0.905;entryDx=0;entryDy=0;entryPerimeter=0;" edge="1" parent="1" target="4YiFxOVjSTQpvdzxmnNl-2">
          <mxGeometry width="50" height="50" relative="1" as="geometry">
            <mxPoint x="-650" y="350" as="sourcePoint" />
            <mxPoint x="-570" y="300" as="targetPoint" />
          </mxGeometry>
        </mxCell>
        <mxCell id="4YiFxOVjSTQpvdzxmnNl-14" value="" style="endArrow=none;html=1;rounded=0;entryX=0.975;entryY=0.72;entryDx=0;entryDy=0;entryPerimeter=0;" edge="1" parent="1" target="4YiFxOVjSTQpvdzxmnNl-1">
          <mxGeometry width="50" height="50" relative="1" as="geometry">
            <mxPoint x="-190" y="380" as="sourcePoint" />
            <mxPoint x="-489.99999999999795" y="230" as="targetPoint" />
          </mxGeometry>
        </mxCell>
        <mxCell id="4YiFxOVjSTQpvdzxmnNl-15" value="" style="endArrow=none;html=1;rounded=0;entryX=0;entryY=0.5;entryDx=0;entryDy=0;" edge="1" parent="1" target="4YiFxOVjSTQpvdzxmnNl-1">
          <mxGeometry width="50" height="50" relative="1" as="geometry">
            <mxPoint x="-650" y="360" as="sourcePoint" />
            <mxPoint x="-489.99999999999795" y="230" as="targetPoint" />
          </mxGeometry>
        </mxCell>
        <mxCell id="4YiFxOVjSTQpvdzxmnNl-16" value="" style="endArrow=none;html=1;rounded=0;exitX=1;exitY=0.5;exitDx=0;exitDy=0;" edge="1" parent="1" source="4YiFxOVjSTQpvdzxmnNl-3">
          <mxGeometry width="50" height="50" relative="1" as="geometry">
            <mxPoint x="-350" y="479.9999999999998" as="sourcePoint" />
            <mxPoint x="-190" y="400" as="targetPoint" />
          </mxGeometry>
        </mxCell>
        <mxCell id="4YiFxOVjSTQpvdzxmnNl-18" value="" style="endArrow=none;html=1;rounded=0;entryX=1;entryY=0.5;entryDx=0;entryDy=0;" edge="1" parent="1" target="4YiFxOVjSTQpvdzxmnNl-4">
          <mxGeometry width="50" height="50" relative="1" as="geometry">
            <mxPoint x="-190" y="390" as="sourcePoint" />
            <mxPoint x="-370.0000000000023" y="320" as="targetPoint" />
          </mxGeometry>
        </mxCell>
        <mxCell id="4YiFxOVjSTQpvdzxmnNl-19" value="" style="endArrow=none;html=1;rounded=0;entryX=0;entryY=0.5;entryDx=0;entryDy=0;" edge="1" parent="1" target="4YiFxOVjSTQpvdzxmnNl-4">
          <mxGeometry width="50" height="50" relative="1" as="geometry">
            <mxPoint x="-650" y="365" as="sourcePoint" />
            <mxPoint x="-489.99999999999795" y="320" as="targetPoint" />
          </mxGeometry>
        </mxCell>
        <mxCell id="4YiFxOVjSTQpvdzxmnNl-23" value="EMPLEADO" style="shape=umlActor;verticalLabelPosition=bottom;verticalAlign=top;html=1;outlineConnect=0;" vertex="1" parent="1">
          <mxGeometry x="-760" y="900" width="30" height="60" as="geometry" />
        </mxCell>
        <mxCell id="4YiFxOVjSTQpvdzxmnNl-24" value="CLIENTE" style="shape=umlActor;verticalLabelPosition=bottom;verticalAlign=top;html=1;outlineConnect=0;" vertex="1" parent="1">
          <mxGeometry x="-350" y="930" width="30" height="60" as="geometry" />
        </mxCell>
        <mxCell id="4YiFxOVjSTQpvdzxmnNl-25" value="ABRIR CUENTA" style="ellipse;whiteSpace=wrap;html=1;" vertex="1" parent="1">
          <mxGeometry x="-506" y="860" width="120" height="60" as="geometry" />
        </mxCell>
        <mxCell id="4YiFxOVjSTQpvdzxmnNl-26" value="VALIDAR IDENTIDAD DE CLIENTE" style="ellipse;whiteSpace=wrap;html=1;" vertex="1" parent="1">
          <mxGeometry x="-650" y="760" width="120" height="60" as="geometry" />
        </mxCell>
        <mxCell id="4YiFxOVjSTQpvdzxmnNl-27" value="" style="endArrow=none;html=1;rounded=0;entryX=0;entryY=0.5;entryDx=0;entryDy=0;exitX=1;exitY=0.3333333333333333;exitDx=0;exitDy=0;exitPerimeter=0;" edge="1" parent="1" source="4YiFxOVjSTQpvdzxmnNl-23" target="4YiFxOVjSTQpvdzxmnNl-25">
          <mxGeometry width="50" height="50" relative="1" as="geometry">
            <mxPoint x="-700" y="799.9999999999998" as="sourcePoint" />
            <mxPoint x="-549.999999999998" y="919.9999999999998" as="targetPoint" />
          </mxGeometry>
        </mxCell>
        <mxCell id="4YiFxOVjSTQpvdzxmnNl-29" value="REALIZAR DEPOSITOS" style="ellipse;whiteSpace=wrap;html=1;" vertex="1" parent="1">
          <mxGeometry x="-190" y="990" width="120" height="60" as="geometry" />
        </mxCell>
        <mxCell id="4YiFxOVjSTQpvdzxmnNl-30" value="" style="endArrow=none;html=1;rounded=0;exitX=0;exitY=0.5;exitDx=0;exitDy=0;" edge="1" parent="1" source="4YiFxOVjSTQpvdzxmnNl-29" target="4YiFxOVjSTQpvdzxmnNl-24">
          <mxGeometry width="50" height="50" relative="1" as="geometry">
            <mxPoint x="-710" y="939.9999999999998" as="sourcePoint" />
            <mxPoint x="-210" y="910" as="targetPoint" />
          </mxGeometry>
        </mxCell>
        <mxCell id="4YiFxOVjSTQpvdzxmnNl-31" value="&amp;lt;&amp;lt;extend&amp;gt;&amp;gt;" style="html=1;verticalAlign=bottom;labelBackgroundColor=none;endArrow=open;endFill=0;dashed=1;rounded=0;entryX=0;entryY=0;entryDx=0;entryDy=0;" edge="1" parent="1" source="4YiFxOVjSTQpvdzxmnNl-26" target="4YiFxOVjSTQpvdzxmnNl-25">
          <mxGeometry width="160" relative="1" as="geometry">
            <mxPoint x="-600" y="880" as="sourcePoint" />
            <mxPoint x="-440" y="880" as="targetPoint" />
          </mxGeometry>
        </mxCell>
        <mxCell id="4YiFxOVjSTQpvdzxmnNl-32" value="CALCULAR&lt;br&gt;&amp;nbsp;BONUS" style="ellipse;whiteSpace=wrap;html=1;" vertex="1" parent="1">
          <mxGeometry x="-30" y="920" width="120" height="60" as="geometry" />
        </mxCell>
        <mxCell id="4YiFxOVjSTQpvdzxmnNl-33" value="&amp;lt;&amp;lt;extend&amp;gt;&amp;gt;" style="html=1;verticalAlign=bottom;labelBackgroundColor=none;endArrow=open;endFill=0;dashed=1;rounded=0;entryX=1;entryY=0;entryDx=0;entryDy=0;" edge="1" parent="1" source="4YiFxOVjSTQpvdzxmnNl-32" target="4YiFxOVjSTQpvdzxmnNl-29">
          <mxGeometry x="-0.0184" y="28" width="160" relative="1" as="geometry">
            <mxPoint x="-80" y="1100" as="sourcePoint" />
            <mxPoint x="-80" y="1259" as="targetPoint" />
            <mxPoint as="offset" />
          </mxGeometry>
        </mxCell>
        <mxCell id="4YiFxOVjSTQpvdzxmnNl-35" value="DAR DE ALTA AL CLIENTE" style="ellipse;whiteSpace=wrap;html=1;" vertex="1" parent="1">
          <mxGeometry x="-600" y="990" width="120" height="60" as="geometry" />
        </mxCell>
        <mxCell id="4YiFxOVjSTQpvdzxmnNl-36" value="" style="endArrow=none;html=1;rounded=0;entryX=0;entryY=0.5;entryDx=0;entryDy=0;exitX=1;exitY=0.3333333333333333;exitDx=0;exitDy=0;exitPerimeter=0;" edge="1" parent="1" target="4YiFxOVjSTQpvdzxmnNl-35">
          <mxGeometry width="50" height="50" relative="1" as="geometry">
            <mxPoint x="-720" y="929.9999999999998" as="sourcePoint" />
            <mxPoint x="-539.999999999998" y="929.9999999999998" as="targetPoint" />
          </mxGeometry>
        </mxCell>
        <mxCell id="4YiFxOVjSTQpvdzxmnNl-39" value="ACTUALIZAR SALDO" style="ellipse;whiteSpace=wrap;html=1;" vertex="1" parent="1">
          <mxGeometry x="-275" y="1100" width="120" height="60" as="geometry" />
        </mxCell>
        <mxCell id="4YiFxOVjSTQpvdzxmnNl-41" value="&amp;lt;&amp;lt;include&amp;gt;&amp;gt;" style="html=1;verticalAlign=bottom;labelBackgroundColor=none;endArrow=open;endFill=0;dashed=1;rounded=0;exitX=0.432;exitY=1.046;exitDx=0;exitDy=0;exitPerimeter=0;entryX=0.775;entryY=0.085;entryDx=0;entryDy=0;entryPerimeter=0;" edge="1" parent="1" source="4YiFxOVjSTQpvdzxmnNl-29" target="4YiFxOVjSTQpvdzxmnNl-39">
          <mxGeometry x="-0.5041" y="26" width="160" relative="1" as="geometry">
            <mxPoint x="-297.1556296513229" y="1061.0021423277828" as="sourcePoint" />
            <mxPoint x="-256.4832676738429" y="1131.1542815707749" as="targetPoint" />
            <mxPoint x="1" as="offset" />
          </mxGeometry>
        </mxCell>
        <mxCell id="4YiFxOVjSTQpvdzxmnNl-45" value="SISTEMA&amp;nbsp;" style="shape=umlActor;verticalLabelPosition=bottom;verticalAlign=top;html=1;outlineConnect=0;" vertex="1" parent="1">
          <mxGeometry x="50" y="1070" width="30" height="60" as="geometry" />
        </mxCell>
        <mxCell id="4YiFxOVjSTQpvdzxmnNl-46" value="" style="endArrow=none;html=1;rounded=0;exitX=0.995;exitY=0.382;exitDx=0;exitDy=0;exitPerimeter=0;" edge="1" parent="1" source="4YiFxOVjSTQpvdzxmnNl-39">
          <mxGeometry width="50" height="50" relative="1" as="geometry">
            <mxPoint x="-169.9956296513254" y="1158.9978576722185" as="sourcePoint" />
            <mxPoint x="40" y="1100" as="targetPoint" />
          </mxGeometry>
        </mxCell>
        <mxCell id="4YiFxOVjSTQpvdzxmnNl-52" value="SISTEMA" style="shape=umlActor;verticalLabelPosition=bottom;verticalAlign=top;html=1;outlineConnect=0;" vertex="1" parent="1">
          <mxGeometry x="-170" y="130" width="30" height="60" as="geometry" />
        </mxCell>
        <mxCell id="4YiFxOVjSTQpvdzxmnNl-53" value="" style="endArrow=none;html=1;rounded=0;entryX=0;entryY=0.3333333333333333;entryDx=0;entryDy=0;entryPerimeter=0;" edge="1" parent="1" source="4YiFxOVjSTQpvdzxmnNl-5" target="4YiFxOVjSTQpvdzxmnNl-52">
          <mxGeometry width="50" height="50" relative="1" as="geometry">
            <mxPoint x="-565" y="514.4099999999997" as="sourcePoint" />
            <mxPoint x="-659.9999999999968" y="514.4099999999997" as="targetPoint" />
          </mxGeometry>
        </mxCell>
        <mxCell id="4YiFxOVjSTQpvdzxmnNl-55" value="&amp;lt;&amp;lt;include&amp;gt;&amp;gt;" style="html=1;verticalAlign=bottom;labelBackgroundColor=none;endArrow=open;endFill=0;dashed=1;rounded=0;entryX=0.5;entryY=1;entryDx=0;entryDy=0;exitX=0.673;exitY=0.017;exitDx=0;exitDy=0;exitPerimeter=0;" edge="1" parent="1" source="4YiFxOVjSTQpvdzxmnNl-65" target="4YiFxOVjSTQpvdzxmnNl-3">
          <mxGeometry x="-0.797" y="9" width="160" relative="1" as="geometry">
            <mxPoint x="-340" y="470" as="sourcePoint" />
            <mxPoint x="-366" y="650" as="targetPoint" />
            <mxPoint as="offset" />
          </mxGeometry>
        </mxCell>
        <mxCell id="4YiFxOVjSTQpvdzxmnNl-63" value="&amp;lt;&amp;lt;extend&amp;gt;&amp;gt;" style="html=1;verticalAlign=bottom;labelBackgroundColor=none;endArrow=open;endFill=0;dashed=1;rounded=0;entryX=0.967;entryY=0.3;entryDx=0;entryDy=0;entryPerimeter=0;" edge="1" parent="1" source="4YiFxOVjSTQpvdzxmnNl-70" target="4YiFxOVjSTQpvdzxmnNl-5">
          <mxGeometry width="160" relative="1" as="geometry">
            <mxPoint x="-200" y="630" as="sourcePoint" />
            <mxPoint x="-290" y="620" as="targetPoint" />
          </mxGeometry>
        </mxCell>
        <mxCell id="4YiFxOVjSTQpvdzxmnNl-65" value="CONSULTAR AGENTE SELECCIONADO" style="ellipse;whiteSpace=wrap;html=1;" vertex="1" parent="1">
          <mxGeometry x="-590" y="470" width="150" height="60" as="geometry" />
        </mxCell>
        <mxCell id="4YiFxOVjSTQpvdzxmnNl-70" value="CLIENTE Y VENDEDOR LLEGAN A UN ACUERDO" style="ellipse;whiteSpace=wrap;html=1;" vertex="1" parent="1">
          <mxGeometry x="-350" y="40" width="160" height="60" as="geometry" />
        </mxCell>
        <mxCell id="4YiFxOVjSTQpvdzxmnNl-71" value="REALIZA UNA OFERTA" style="ellipse;whiteSpace=wrap;html=1;" vertex="1" parent="1">
          <mxGeometry x="-340" y="220" width="150" height="60" as="geometry" />
        </mxCell>
        <mxCell id="4YiFxOVjSTQpvdzxmnNl-73" value="&amp;lt;&amp;lt;include&amp;gt;&amp;gt;" style="html=1;verticalAlign=bottom;labelBackgroundColor=none;endArrow=open;endFill=0;dashed=1;rounded=0;entryX=0.975;entryY=0.733;entryDx=0;entryDy=0;exitX=0.207;exitY=0.05;exitDx=0;exitDy=0;exitPerimeter=0;entryPerimeter=0;" edge="1" parent="1" source="4YiFxOVjSTQpvdzxmnNl-71" target="4YiFxOVjSTQpvdzxmnNl-5">
          <mxGeometry x="-0.1036" y="-8" width="160" relative="1" as="geometry">
            <mxPoint x="-600" y="151.01999999999998" as="sourcePoint" />
            <mxPoint x="-550.95" y="120" as="targetPoint" />
            <mxPoint as="offset" />
          </mxGeometry>
        </mxCell>
        <mxCell id="4YiFxOVjSTQpvdzxmnNl-74" value="" style="endArrow=none;html=1;rounded=0;exitX=0.653;exitY=0.983;exitDx=0;exitDy=0;exitPerimeter=0;" edge="1" parent="1" source="4YiFxOVjSTQpvdzxmnNl-71" target="4YiFxOVjSTQpvdzxmnNl-7">
          <mxGeometry width="50" height="50" relative="1" as="geometry">
            <mxPoint x="-376" y="160" as="sourcePoint" />
            <mxPoint x="-160" y="160" as="targetPoint" />
          </mxGeometry>
        </mxCell>
      </root>
    </mxGraphModel>
  </diagram>
</mxfile>
